<?xml version="1.0" encoding="utf-8"?>
<!-- Generator: Adobe Illustrator 25.0.0, SVG Export Plug-In . SVG Version: 6.00 Build 0)  -->
<svg version="1.1" id="Layer_1" xmlns="http://www.w3.org/2000/svg" xmlns:xlink="http://www.w3.org/1999/xlink" x="0px" y="0px"
	 viewBox="0 0 346.43 86.43" style="enable-background:new 0 0 346.43 86.43;" xml:space="preserve">
<g>
	<g>
		<path d="M76.78,34.63c-3.38,0-6.13,2.75-6.13,6.13s2.75,6.13,6.13,6.13s6.13-2.75,6.13-6.13S80.16,34.63,76.78,34.63z
			 M76.78,43.12c-1.31,0-2.37-1.06-2.37-2.37s1.06-2.37,2.37-2.37s2.37,1.06,2.37,2.37S78.08,43.12,76.78,43.12z"/>
		<path d="M61.7,55.22l-0.07-0.16l11.14-26.38h9.91c1.41,1.99,3.1,5.16,3.48,9.29c0.59,6.44-2.37,11.27-3.67,13.04l5.68,4.16
			c1.77-2.42,5.81-9.01,5-17.84c-0.65-7.07-4.09-12.08-6.08-14.44l-1.05-1.25H68.1L57.81,46.02L47.52,21.65H29.59l-1.05,1.25
			c-1.99,2.36-5.43,7.37-6.08,14.44c-0.81,8.83,3.22,15.42,5,17.84l5.68-4.16c-1.3-1.78-4.26-6.6-3.67-13.04
			c0.38-4.13,2.07-7.31,3.48-9.29h9.91l11.14,26.38l-0.07,0.16l0.16,0.07l1.07,2.53l2.67,6.96l3.04-7.92l0.66-1.57L61.7,55.22z"/>
		<path d="M38.84,34.63c-3.38,0-6.13,2.75-6.13,6.13s2.75,6.13,6.13,6.13s6.13-2.75,6.13-6.13S42.22,34.63,38.84,34.63z
			 M38.84,43.12c-1.31,0-2.37-1.06-2.37-2.37s1.06-2.37,2.37-2.37c1.31,0,2.37,1.06,2.37,2.37S40.15,43.12,38.84,43.12z"/>
	</g>
	<g>
		<path d="M122.9,21.03v19.78h-2.01V24.98l-7.77,13.31h-0.99l-7.77-13.23v15.74h-2.01V21.03h1.72l8.59,14.67l8.51-14.67H122.9z"/>
		<path d="M139.54,31.6v9.21h-1.92v-2.32c-0.9,1.53-2.66,2.46-5.12,2.46c-3.36,0-5.43-1.75-5.43-4.32c0-2.29,1.47-4.21,5.74-4.21
			h4.72v-0.9c0-2.54-1.44-3.93-4.21-3.93c-1.92,0-3.73,0.68-4.95,1.75l-0.9-1.5c1.5-1.27,3.7-2.01,6.05-2.01
			C137.37,25.83,139.54,27.75,139.54,31.6z M137.54,36.34v-2.43h-4.66c-2.88,0-3.81,1.13-3.81,2.66c0,1.72,1.38,2.8,3.76,2.8
			C135.08,39.37,136.75,38.29,137.54,36.34z"/>
		<path d="M152.24,39.91c-0.79,0.71-1.98,1.05-3.14,1.05c-2.8,0-4.35-1.58-4.35-4.32v-8.99h-2.66v-1.7h2.66V22.7h2.01v3.25h4.52v1.7
			h-4.52v8.87c0,1.75,0.9,2.71,2.57,2.71c0.82,0,1.64-0.25,2.2-0.76L152.24,39.91z"/>
		<path d="M162.72,39.91c-0.79,0.71-1.98,1.05-3.14,1.05c-2.8,0-4.35-1.58-4.35-4.32v-8.99h-2.66v-1.7h2.66V22.7h2.01v3.25h4.52v1.7
			h-4.52v8.87c0,1.75,0.9,2.71,2.57,2.71c0.82,0,1.64-0.25,2.2-0.76L162.72,39.91z"/>
		<path d="M179.45,32.19v8.62h-2.01v-8.42c0-3.14-1.64-4.75-4.46-4.75c-3.19,0-5.2,1.98-5.2,5.37v7.8h-2.01V19.84h2.01v8.7
			c1.1-1.72,3.05-2.71,5.57-2.71C176.97,25.83,179.45,27.92,179.45,32.19z"/>
		<path d="M197.31,34h-12.43c0.23,3.11,2.6,5.17,5.85,5.17c1.81,0,3.42-0.65,4.55-1.95l1.13,1.3c-1.33,1.58-3.39,2.43-5.74,2.43
			c-4.63,0-7.8-3.17-7.8-7.57c0-4.41,3.08-7.55,7.26-7.55c4.18,0,7.21,3.08,7.21,7.55C197.34,33.55,197.31,33.77,197.31,34z
			 M184.88,32.5h10.54c-0.25-2.91-2.37-4.95-5.28-4.95C187.25,27.56,185.14,29.59,184.88,32.5z"/>
		<path d="M222.38,25.95l-5.62,14.86h-1.89l-4.69-12.18l-4.69,12.18h-1.89L198,25.95h1.92l4.66,12.63l4.78-12.63h1.72l4.75,12.63
			l4.72-12.63H222.38z"/>
		<path d="M248.58,35.52c0,3.36-2.49,5.28-7.43,5.28h-9.1V21.03h8.53c4.41,0,6.95,1.86,6.95,5.09c0,2.26-1.21,3.76-3.02,4.49
			C247.06,31.17,248.58,32.84,248.58,35.52z M234.14,22.75v7.18h6.3c3.17,0,5-1.21,5-3.59s-1.84-3.59-5-3.59H234.14z M246.49,35.36
			c0-2.57-1.89-3.7-5.37-3.7h-6.98v7.43h6.98C244.6,39.09,246.49,37.96,246.49,35.36z"/>
		<path d="M259.84,25.83v1.95c-0.17,0-0.34-0.03-0.48-0.03c-3.11,0-5,1.98-5,5.48v7.57h-2.01V25.95h1.92v2.91
			C255.2,26.88,257.09,25.83,259.84,25.83z"/>
		<path d="M261.22,33.38c0-4.41,3.22-7.55,7.57-7.55c4.35,0,7.55,3.14,7.55,7.55c0,4.41-3.19,7.57-7.55,7.57
			C264.44,40.95,261.22,37.79,261.22,33.38z M274.3,33.38c0-3.48-2.35-5.79-5.51-5.79s-5.54,2.32-5.54,5.79s2.37,5.79,5.54,5.79
			S274.3,36.85,274.3,33.38z"/>
		<path d="M278.35,33.38c0-4.41,3.22-7.55,7.57-7.55c4.35,0,7.55,3.14,7.55,7.55c0,4.41-3.19,7.57-7.55,7.57
			C281.57,40.95,278.35,37.79,278.35,33.38z M291.43,33.38c0-3.48-2.35-5.79-5.51-5.79s-5.54,2.32-5.54,5.79s2.37,5.79,5.54,5.79
			S291.43,36.85,291.43,33.38z"/>
		<path d="M302.49,33.35l-3.5,3.22v4.24h-2.01V19.84h2.01v14.21l8.87-8.11h2.49l-6.36,6.08l6.95,8.79h-2.46L302.49,33.35z"/>
		<path d="M310.85,39.11l0.9-1.58c1.19,0.93,3.19,1.67,5.29,1.67c2.83,0,3.98-0.96,3.98-2.43c0-3.87-9.64-0.82-9.64-6.7
			c0-2.43,2.09-4.24,5.88-4.24c1.92,0,4.01,0.54,5.26,1.38l-0.88,1.61c-1.3-0.9-2.85-1.27-4.38-1.27c-2.68,0-3.87,1.05-3.87,2.46
			c0,4.01,9.64,0.99,9.64,6.7c0,2.57-2.26,4.24-6.13,4.24C314.44,40.95,312.07,40.16,310.85,39.11z"/>
		<path d="M101.48,48.03h8.99c6.47,0,10.91,3.9,10.91,9.89c0,5.99-4.44,9.89-10.91,9.89h-8.99V48.03z M110.24,64.05
			c3.93,0,6.5-2.35,6.5-6.13c0-3.79-2.57-6.13-6.5-6.13h-4.18v12.26H110.24z"/>
		<path d="M139.32,61.45h-11.5c0.42,1.89,2.03,3.05,4.35,3.05c1.61,0,2.77-0.48,3.81-1.47l2.35,2.54c-1.41,1.61-3.53,2.46-6.27,2.46
			c-5.26,0-8.68-3.31-8.68-7.83c0-4.55,3.48-7.83,8.11-7.83c4.46,0,7.91,3,7.91,7.88C139.4,60.6,139.35,61.08,139.32,61.45z
			 M127.76,58.88h7.49c-0.31-1.92-1.75-3.17-3.73-3.17C129.51,55.71,128.07,56.93,127.76,58.88z"/>
		<path d="M140.88,66.4l1.47-3.17c1.36,0.88,3.42,1.47,5.28,1.47c2.03,0,2.8-0.54,2.8-1.38c0-2.49-9.18,0.06-9.18-6.02
			c0-2.88,2.6-4.92,7.04-4.92c2.09,0,4.41,0.48,5.85,1.33l-1.47,3.14c-1.5-0.85-3-1.13-4.38-1.13c-1.98,0-2.83,0.62-2.83,1.41
			c0,2.6,9.18,0.08,9.18,6.08c0,2.83-2.63,4.83-7.18,4.83C144.89,68.04,142.29,67.33,140.88,66.4z"/>
		<path d="M156.82,48.03c0-1.38,1.1-2.46,2.74-2.46c1.64,0,2.74,1.02,2.74,2.37c0,1.47-1.1,2.54-2.74,2.54
			C157.92,50.49,156.82,49.41,156.82,48.03z M157.35,52.61h4.41v15.2h-4.41V52.61z"/>
		<path d="M181.54,52.61v12.66c0,5.65-3.05,8.25-8.53,8.25c-2.88,0-5.68-0.71-7.46-2.09l1.75-3.17c1.3,1.05,3.42,1.72,5.37,1.72
			c3.11,0,4.46-1.41,4.46-4.15v-0.65c-1.16,1.27-2.83,1.89-4.8,1.89c-4.21,0-7.6-2.91-7.6-7.35c0-4.44,3.39-7.35,7.6-7.35
			c2.12,0,3.87,0.71,5.03,2.18v-1.95H181.54z M177.19,59.73c0-2.23-1.67-3.73-3.98-3.73c-2.32,0-4.01,1.5-4.01,3.73
			s1.7,3.73,4.01,3.73C175.52,63.46,177.19,61.96,177.19,59.73z"/>
		<path d="M201.19,59.11v8.7h-4.41v-8.03c0-2.46-1.13-3.59-3.08-3.59c-2.12,0-3.65,1.3-3.65,4.1v7.52h-4.41v-15.2h4.21v1.78
			c1.19-1.3,2.97-2.01,5.03-2.01C198.47,52.38,201.19,54.47,201.19,59.11z"/>
	</g>
</g>
</svg>
